<svg width="645" height="581" viewBox="0 0 645 581" fill="none" xmlns="http://www.w3.org/2000/svg">
<path d="M72.3016 580.328C75.9115 564.684 87.3448 557.525 98.0108 554.272C103.414 552.624 108.605 551.985 112.449 551.758C114.37 551.645 115.951 551.635 117.051 551.654C117.601 551.663 118.03 551.679 118.321 551.693C118.466 551.7 118.577 551.706 118.651 551.71C118.687 551.713 118.715 551.714 118.733 551.716L118.753 551.717L118.758 551.717L118.759 551.718C118.759 551.718 118.759 551.718 118.76 551.703L118.759 551.718L119.003 551.736L119.167 551.554C122.148 548.26 124.206 543.168 125.612 537.199C127.021 531.219 127.79 524.298 128.153 517.291C128.879 503.275 127.983 488.856 127.303 480.801L127.29 480.652L127.198 480.534C67.8243 405.038 59.0287 342.42 61.872 298.696C63.0626 280.388 66.293 265.39 68.7236 254.105C69.1974 251.905 69.6409 249.846 70.0329 247.931C71.2283 242.092 71.9632 237.52 71.5681 234.399C71.369 232.826 70.8753 231.551 69.9432 230.673C69.0056 229.79 67.6999 229.38 66.0295 229.38C53.3521 229.38 41.7344 227.42 31.3182 220.733C20.9021 214.047 11.6262 202.593 3.71496 183.488C0.725122 176.099 0.47608 171.769 1.69404 168.752C2.91913 165.717 5.66734 163.876 9.12528 161.564C12.5497 159.275 16.5639 156.578 20.0063 151.827C23.4507 147.074 26.2986 140.303 27.4865 129.887C28.8417 120.384 32.443 111.342 37.9916 103.51C43.5415 95.676 50.8794 89.2796 59.3962 84.8515L59.7615 84.6615L59.6451 84.2666C53.9346 64.881 51.6349 49.9483 50.7619 39.8703C50.3254 34.8312 50.2455 31.0055 50.2744 28.4435C50.2888 27.1624 50.3304 26.1973 50.3683 25.5543C50.3695 25.5331 50.3707 25.5122 50.372 25.4917C65.4623 36.8464 78.48 50.7248 88.8491 66.5162L89.7603 66.1603C86.1787 44.4659 87.4193 22.2507 93.3914 1.09401C119.959 10.6753 133.672 29.4467 142.801 46.2404C145.099 50.467 147.105 54.5658 148.954 58.3644L149.217 58.9032C150.963 62.4901 152.576 65.8039 154.164 68.6741C155.83 71.6853 157.485 74.2385 159.262 76.1248C161.043 78.0144 162.975 79.2649 165.195 79.6095C169.242 80.2376 174.324 82.4664 179.735 86.1186C185.139 89.7657 190.841 94.8124 196.127 101.038C206.7 113.491 215.583 130.63 217.111 150.673C219.121 177.207 230.137 201.565 240.631 219.272C245.881 228.13 251.004 235.331 254.817 240.32C256.723 242.814 258.302 244.756 259.405 246.075C259.956 246.734 260.389 247.238 260.684 247.578C260.742 247.644 260.795 247.705 260.843 247.759C260.915 247.842 260.975 247.91 261.022 247.962C261.06 248.006 261.089 248.038 261.109 248.06L261.131 248.085L261.137 248.092L261.138 248.094C261.139 248.094 261.139 248.094 261.511 247.76L261.139 248.094L261.254 248.222L261.424 248.252C353.171 264.451 398.806 319.093 421.528 376.349C444.057 433.121 444.052 492.458 444.051 519.452L444.051 520.179V520.196V520.213V520.229V520.246V520.263V520.28V520.296V520.313V520.33V520.347V520.363V520.38V520.397V520.414V520.43V520.447V520.464V520.48V520.497V520.514V520.531V520.547V520.564V520.581V520.597V520.614V520.631V520.647V520.664V520.681V520.697V520.714V520.731V520.747V520.764V520.781V520.797V520.814V520.831V520.847V520.864V520.88V520.897V520.914V520.93V520.947V520.964V520.98V520.997V521.013V521.03V521.047V521.063V521.08V521.096V521.113V521.129V521.146V521.163V521.179V521.196V521.212V521.229V521.245V521.262V521.279V521.295V521.312V521.328V521.345V521.361V521.378V521.394V521.411V521.427V521.444V521.46V521.477V521.494V521.51V521.527V521.543V521.56V521.576V521.593V521.609V521.625V521.642V521.659V521.675V521.691V521.708V521.724V521.741V521.757V521.774V521.79V521.807V521.823V521.84V521.856V521.873V521.889V521.905V521.922V521.938V521.955V521.971V521.988V522.004V522.02V522.037V522.053V522.07V522.086V522.102V522.119V522.135V522.152V522.168V522.184V522.201V522.217V522.234V522.25V522.266V522.283V522.299V522.315V522.332V522.348V522.365V522.381V522.397V522.414V522.43V522.446V522.463V522.479V522.495V522.512V522.528V522.544V522.561V522.577V522.593V522.61V522.626V522.642V522.659V522.675V522.691V522.707V522.724V522.74V522.756V522.773V522.789V522.805V522.821V522.838V522.854V522.87V522.887V522.903V522.919V522.935V522.952V522.968V522.984V523V523.017V523.033V523.049V523.065V523.082V523.098V523.114V523.13V523.147V523.163V523.179V523.195V523.211V523.228V523.244V523.26V523.276V523.292V523.309V523.325V523.341V523.357V523.373V523.39V523.406V523.422V523.438V523.454V523.471V523.487V523.503V523.519V523.535V523.551V523.568V523.584V523.6V523.616V523.632V523.648V523.664V523.681V523.697V523.713V523.729V523.745V523.761V523.777V523.793V523.81V523.826V523.842V523.858V523.874V523.89V523.906V523.922V523.938V523.954V523.971V523.987V524.003V524.019V524.035V524.051V524.067V524.083V524.099V524.115V524.131V524.147V524.164V524.18V524.196V524.212V524.228V524.244V524.26V524.276V524.292V524.308V524.324V524.34V524.356V524.372V524.388V524.404V524.42V524.436V524.452V524.468V524.484V524.5V524.516V524.532V524.548V524.564V524.58V524.596V524.612V524.628V524.644V524.66V524.676V524.692V524.708V524.724V524.74V524.756V524.772V524.788V524.804V524.82V524.836V524.852V524.868V524.884V524.9V524.916V524.932V524.948V524.964V524.979V524.995V525.011V525.027V525.043V525.059V525.075V525.091V525.107V525.123V525.139V525.155V525.171V525.186V525.202V525.218V525.234V525.25V525.266V525.282V525.298V525.314V525.33V525.345V525.361V525.377V525.393V525.409V525.425V525.441V525.457V525.472V525.488V525.504V525.52V525.536V525.552V525.568V525.583V525.599V525.615V525.631V525.647V525.663V525.679V525.694V525.71V525.726V525.742V525.758V525.773V525.789V525.805V525.821V525.837V525.853V525.868V525.884V525.9V525.916V525.932V525.947V525.963V525.979V525.995V526.011V526.026V526.042V526.058V526.074V526.09V526.105V526.121V526.137V526.153V526.168V526.184V526.2V526.216V526.232V526.247V526.263V526.279V526.295V526.31V526.326V526.342V526.358V526.373V526.389V526.405V526.421V526.436V526.452V526.468V526.484V526.499V526.515V526.531V526.546V526.562V526.578V526.594V526.609V526.625V526.641V526.656V526.672V526.688V526.704V526.719V526.735V526.751V526.766V526.782V526.798V526.813V526.829V526.845V526.86V526.876V526.892V526.908V526.923V526.939V526.955V526.97V526.986V527.002V527.017V527.033V527.049V527.064V527.08V527.096V527.111V527.127V527.142V527.158V527.174V527.189V527.205V527.221V527.236V527.252V527.268V527.283V527.299V527.314V527.33V527.346V527.361V527.377V527.393V527.408V527.424V527.439V527.455V527.471V527.486V527.502V527.517V527.533V527.549V527.564V527.58V527.595V527.611V527.627V527.642V527.658V527.673V527.689V527.705V527.72V527.736V527.751V527.767V527.782V527.798V527.814V527.829V527.845V527.86V527.876V527.891V527.907V527.923V527.938V527.954V527.969V527.985V528V528.016V528.031V528.047V528.062V528.078V528.094V528.109V528.125V528.14V528.156V528.171V528.187V528.202V528.218V528.233V528.249V528.264V528.28V528.295V528.311V528.326V528.342V528.357V528.373V528.389V528.404V528.957L444.601 528.901C482.299 525.109 530.914 514.657 562.498 486.797C572.099 478.447 579.857 468.188 585.277 456.675C590.698 445.163 593.663 432.649 593.985 419.928C597.637 356.138 575.938 317.488 553.164 294.787C541.782 283.443 530.143 276.093 521.288 271.577C516.861 269.319 513.128 267.77 510.469 266.783C509.14 266.29 508.079 265.938 507.332 265.708C506.96 265.593 506.664 265.508 506.451 265.452C506.346 265.423 506.258 265.401 506.19 265.386C506.156 265.379 506.124 265.372 506.096 265.367L506.094 265.367C506.087 265.365 506.076 265.363 506.061 265.361C499.748 263.672 494.361 259.549 491.082 253.894C487.796 248.228 486.895 241.488 488.577 235.157C490.259 228.827 494.387 223.424 500.051 220.137C505.716 216.851 512.453 215.95 518.782 217.632C565.281 230.026 650.885 288.772 643.25 422.884L643.25 422.895C642.579 442.17 637.95 461.101 629.652 478.51C621.354 495.92 609.565 511.436 595.016 524.093L595.014 524.095C568.498 547.445 534.425 561.257 501.461 569.355C468.505 577.452 436.693 579.828 414.729 580.328H414.306H72.3016Z" fill="#66666A" stroke="white"/>
</svg>
