<svg width="127" height="177" viewBox="0 0 127 177" fill="none" xmlns="http://www.w3.org/2000/svg">
<path d="M123.334 106.85H3.46547C1.60031 112.792 0.46875 119.08 0.46875 125.633C0.46875 135.177 2.76115 144.175 6.56921 152.282C10.2283 160.072 15.4586 166.86 21.8204 172.51C23.604 172.912 25.2788 173.392 27.2252 173.741C30.5837 174.342 34.2057 174.869 37.9812 175.293C41.7569 175.716 45.6997 176.033 49.8076 176.256C53.9153 176.479 58.1881 176.577 62.5436 176.577C66.8993 176.577 71.1184 176.479 75.2262 176.256C79.3342 176.033 83.3305 175.716 87.106 175.293C90.8817 174.869 94.45 174.342 97.8086 173.741C100.62 173.237 103.157 172.642 105.621 172.028C111.52 166.652 116.39 160.183 119.909 152.924C123.925 144.641 126.331 135.45 126.331 125.633C126.331 119.064 125.204 112.802 123.334 106.85Z" fill="#23B716" fill-opacity="0.633721" stroke="black" stroke-width="0.841746" stroke-linecap="round" stroke-linejoin="bevel"/>
<path d="M47.7209 1.48288V64.6815C26.6523 70.1079 9.94181 86.2167 3.46582 106.85H123.335C116.934 86.4746 100.554 70.4915 79.8286 64.8956V1.48288H47.7209Z" fill="white" fill-opacity="0.633721" stroke="black" stroke-width="0.841746" stroke-linecap="round" stroke-linejoin="bevel"/>
<path d="M88.5727 1.27502H38.106V11.3684H88.5727V1.27502Z" fill="white" fill-opacity="0.633721" stroke="black" stroke-width="1.18951" stroke-linecap="round" stroke-linejoin="bevel"/>
<path d="M119.163 153.238H7.26843C10.8753 160.371 15.6843 166.759 21.6097 172.021C23.3932 172.424 25.0682 172.85 27.0145 173.198C30.3725 173.8 33.9414 174.327 37.717 174.75C41.4924 175.174 45.489 175.491 49.5969 175.713C53.705 175.936 57.9237 176.088 62.2795 176.088C66.6348 176.088 70.9075 175.937 75.0153 175.713C79.1235 175.491 83.0666 175.174 86.8417 174.75C90.6174 174.327 94.2393 173.8 97.598 173.198C100.41 172.695 102.946 172.1 105.411 171.486C111.078 166.321 115.685 160.149 119.163 153.238Z" fill="#23B716" fill-opacity="0.633721" stroke="black" stroke-width="0.841746" stroke-linecap="round" stroke-linejoin="bevel"/>
</svg>
