<svg width="341" height="417" viewBox="0 0 341 417" fill="none" xmlns="http://www.w3.org/2000/svg">
<path d="M33.8582 131.747L50.7265 114.734C54.8799 112.176 63.6473 110.837 66.1419 108.122C68.5274 105.721 69.6294 101.932 70.1502 99.1573C71.1916 93.5949 73.7468 88.5754 77.5369 84.6179C91.1357 70.4526 127.416 40.2986 170.416 66.3259C174.364 68.5701 172.886 74.9652 168.345 75.2546C159.179 76.0871 133.628 80.8291 125.671 92.6055C123.309 96.1046 122.777 100.026 123.903 104.515L202.795 184.054C204.672 181.351 208.68 179.71 211.259 182.461L301.571 273.512C316.478 287.919 305.628 314.934 284.667 314.489C278.273 314.489 272.267 311.992 267.762 307.443L177.45 216.392C174.641 213.423 176.421 210.142 179.109 207.933L100.884 129.071C98.4859 129.59 94.2477 130.965 90.5785 134.67C88.0598 137.083 87.0789 145.143 84.6935 148.847L67.8251 165.848C66.033 167.742 62.7393 167.742 60.9348 165.848L33.8339 138.53C31.9691 136.648 31.9691 133.62 33.8339 131.749L33.8582 131.747ZM274.654 300.66C288.458 313.426 307.579 293.975 294.683 280.305L207.821 192.719C207.821 192.719 187.937 212.725 187.707 212.99L274.653 300.65L274.654 300.66ZM185.929 201.068L195.98 190.933L119.472 113.794L109.421 123.929L185.929 201.068ZM100.341 119.345C102.399 117.27 111.869 107.726 114.121 105.457C109.314 83.6301 134.308 72.1808 151.805 68.3661C120.743 58.6046 95.0376 80.3717 84.5627 91.2915C77.9148 98.0003 80.6394 107.568 73.0468 114.905C70.8308 117.137 66.8589 118.995 63.2019 120.358L78.9926 136.285C80.1915 133.1 81.7657 129.83 83.7031 127.887C89.7577 121.782 96.9023 119.912 100.354 119.344L100.341 119.345ZM64.3994 155.59L74.4502 145.455L54.1669 125.003L44.1161 135.151L64.3994 155.603V155.59Z" fill="#FC6255"/>
</svg>
