<svg width="371" height="433" viewBox="0 0 371 433" fill="none" xmlns="http://www.w3.org/2000/svg">
<path d="M259.419 29.713H368.754V139.048H259.419V29.713Z" fill="#F1CD43" stroke="#FFFA05" stroke-width="2.84753" stroke-linejoin="bevel"/>
<path d="M259.42 29.6863L213.606 2.09357V110.601L259.42 139.021V29.6863Z" fill="#F1CD43" stroke="#FFFA05" stroke-width="2.84753" stroke-linejoin="bevel"/>
<path d="M322.842 2.03232H213.507L259.473 29.7397H368.807L322.842 2.03232Z" fill="#F1CD43" stroke="#FFFA05" stroke-width="2.84753" stroke-linejoin="bevel"/>
<path d="M226.162 35.5455L236.23 41.0827L235.978 116.338L226.162 109.794V35.5455Z" fill="#1E1E25" stroke="black" stroke-width="1.42377" stroke-linecap="round" stroke-linejoin="bevel"/>
<path fill-rule="evenodd" clip-rule="evenodd" d="M52.394 18.7166C48.9968 18.7196 44.7993 19.7209 43.4064 24.3671C42.1671 28.5006 44.1896 31.2563 46.521 32.9987C45.8645 31.5682 45.6699 29.8575 46.2984 27.7931C47.898 22.5373 53.1181 21.8949 56.7096 22.1425C59.9206 21.8632 62.8497 22.7209 62.8497 22.7209L207.451 49.639L232.5 54.1772L226.894 50.7958L57.1546 19.3395C57.1543 19.3395 55.0359 18.7139 52.394 18.7166Z" fill="#9291A4" stroke="black" stroke-width="1.41344"/>
<path fill-rule="evenodd" clip-rule="evenodd" d="M232.629 54.2144L60.2951 22.7345C60.2951 22.7345 48.8182 19.5355 46.3049 27.7931C43.7917 36.0507 54.5628 38.923 54.5628 38.923L232.64 82.0061L232.629 54.2144Z" fill="#F4F4F6" stroke="black" stroke-width="1.42377"/>
<path d="M61.278 31.1287C61.279 31.7127 61.1647 32.2913 60.9419 32.8312C60.7191 33.371 60.392 33.8617 59.9794 34.275C59.5668 34.6884 59.0767 35.0163 58.5372 35.24C57.9977 35.4638 57.4194 35.5789 56.8354 35.5789C56.2513 35.5789 55.673 35.4638 55.1335 35.24C54.594 35.0163 54.104 34.6884 53.6913 34.275C53.2787 33.8617 52.9513 33.371 52.7285 32.8312C52.5057 32.2913 52.3917 31.7127 52.3927 31.1287C52.3917 30.5446 52.5057 29.9661 52.7285 29.4262C52.9513 28.8863 53.2787 28.3957 53.6913 27.9823C54.104 27.569 54.594 27.2411 55.1335 27.0173C55.673 26.7936 56.2513 26.6784 56.8354 26.6784C57.4194 26.6784 57.9977 26.7936 58.5372 27.0173C59.0767 27.2411 59.5668 27.569 59.9794 27.9823C60.392 28.3957 60.7191 28.8863 60.9419 29.4262C61.1647 29.9661 61.279 30.5446 61.278 31.1287Z" fill="#1B1A20" stroke="black" stroke-width="1.42377" stroke-linecap="round" stroke-linejoin="bevel"/>
<path d="M55.4196 31.4283L34.4196 398.117C28.9693 402.521 0.83728 430.03 0.83728 430.03L35.9102 399.495L2.26099 431.809L37.6898 401.453" stroke="white" stroke-width="1.42377"/>
</svg>
