<svg width="326" height="215" viewBox="0 0 326 215" fill="none" xmlns="http://www.w3.org/2000/svg">
<path d="M47.4263 29.2888H156.761V138.623H47.4263V29.2888Z" fill="black" stroke="black" stroke-width="2.84753" stroke-linejoin="bevel"/>
<path d="M47.4261 29.2619L1.61292 1.66924V110.176L47.4261 138.597V29.2619Z" fill="#4B43F1" stroke="black" stroke-width="2.84753" stroke-linejoin="bevel"/>
<path d="M110.849 1.608H1.51392L47.4796 29.3154H156.814L110.849 1.608Z" fill="#4B43F1" stroke="black" stroke-width="2.848" stroke-linejoin="round"/>
<g opacity="0.9">
<path fill-rule="evenodd" clip-rule="evenodd" d="M149.407 64.5122C159.911 90.4505 147.583 120.037 121.81 130.739C96.0375 141.44 66.4944 129.24 55.6809 103.43C44.8674 77.6197 56.8421 47.8869 82.485 36.8761C108.128 25.8652 137.815 37.7089 148.935 63.387" fill="black"/>
<path d="M149.407 64.5122C159.911 90.4505 147.583 120.037 121.81 130.739C96.0375 141.44 66.4944 129.24 55.6809 103.43C44.8674 77.6197 56.8421 47.8869 82.485 36.8761C108.128 25.8652 137.815 37.7089 148.935 63.387" stroke="black" stroke-width="3.67447" stroke-linecap="round" stroke-linejoin="round"/>
</g>
<path d="M102.571 92.8769C107.464 92.8769 111.43 88.953 111.43 84.1126C111.43 79.2722 107.464 75.3482 102.571 75.3482C97.6783 75.3482 93.7119 79.2722 93.7119 84.1126C93.7119 88.953 97.6783 92.8769 102.571 92.8769Z" fill="#F1CD43"/>
<path d="M115.86 84.1126C115.86 79.4158 113.327 75.0757 109.215 72.7274L124.719 46.162C138.424 53.99 146.866 68.4566 146.866 84.1126H115.86Z" fill="#F1CD43"/>
<path d="M95.9267 95.4978C100.038 97.8462 105.104 97.8462 109.215 95.4978L124.718 122.063C111.014 129.891 94.1283 129.891 80.4234 122.063L95.9267 95.4978Z" fill="#F1CD43"/>
<path d="M95.9267 72.7274C91.8152 75.0758 89.2824 79.4158 89.2824 84.1126L58.2758 84.1125C58.2759 68.4566 66.7184 53.9899 80.4234 46.1619L95.9267 72.7274Z" fill="#F1CD43"/>
<path d="M105.08 82.9668L323.25 211.446" stroke="#FF0E0E" stroke-width="7.11883" stroke-dasharray="14.24 7.12"/>
</svg>
