<svg xmlns="http://www.w3.org/2000/svg" xmlns:xlink="http://www.w3.org/1999/xlink" version="1.1" viewBox="0 0 36 45" x="0px" y="0px"><g enable-background="new"><g data-name="Layer 1"><path transform="matrix(1,0,0,-1,0,36)" d="M 2.7252 25.7596 C 2.4931 25.628 2.198 25.7094 2.0662 25.9415 C 1.9346 26.1737 2.016 26.4688 2.2482 26.6003 C 5.9958 28.7371 8.7676 29.5294 11.0032 29.5852 C 13.2724 29.6419 14.9649 28.9494 16.5546 28.1276 C 16.7919 28.0054 16.8851 27.7138 16.763 27.4762 C 16.6405 27.239 16.3488 27.1457 16.1116 27.2679 C 14.6392 28.0293 13.0788 28.6707 11.0262 28.6194 C 8.9396 28.5673 6.3187 27.8084 2.7252 25.7596 Z M 19.5466 25.5404 C 19.2988 25.6397 19.1784 25.9211 19.2779 26.1692 C 19.3771 26.4169 19.6586 26.5371 19.9063 26.4379 C 21.3137 25.8729 22.9011 25.554 24.9837 25.9078 C 27.1123 26.2695 29.7598 27.3283 33.2561 29.5257 C 33.4817 29.6677 33.7805 29.5999 33.9225 29.3743 C 34.0645 29.1484 33.9968 28.8499 33.7711 28.7079 C 30.155 26.4351 27.3889 25.3352 25.143 24.9537 C 22.8506 24.5642 21.1003 24.9168 19.5466 25.5404 Z M 2.7252 16.5665 C 2.4931 16.4347 2.198 16.5161 2.0662 16.7482 C 1.9346 16.9804 2.016 17.2755 2.2482 17.4073 C 3.7755 18.2778 5.1386 18.9244 6.3675 19.3881 C 7.609 19.8567 8.7171 20.1404 9.722 20.2819 C 9.9867 20.3185 10.2308 20.1336 10.2674 19.8692 C 10.3039 19.6044 10.1191 19.3603 9.8546 19.3238 C 8.9186 19.1923 7.88 18.9252 6.7082 18.483 C 5.5242 18.0363 4.2066 17.411 2.7252 16.5665 Z M 13.0816 19.2362 C 12.8203 19.2917 12.653 19.5486 12.7083 19.8099 C 12.7638 20.0713 13.0207 20.2385 13.282 20.183 C 14.9012 19.8369 16.2136 19.1262 17.5238 18.4167 C 20.937 16.5688 24.3383 14.7271 33.2561 20.3323 C 33.4817 20.4746 33.7805 20.4069 33.9225 20.181 C 34.0645 19.9553 33.9968 19.6566 33.7711 19.5146 C 24.374 13.6077 20.7261 15.5829 17.0654 17.5646 C 15.8159 18.2412 14.5644 18.919 13.0816 19.2362 Z M 2.7252 7.3732 C 2.4931 7.2414 2.198 7.3227 2.0662 7.5549 C 1.9346 7.7871 2.016 8.0821 2.2482 8.214 C 10.5985 12.9747 14.0683 11.0971 17.5258 9.2256 C 19.9307 7.924 22.3299 6.6257 26.5963 7.9067 C 26.8523 7.9829 27.1222 7.8372 27.1984 7.581 C 27.2747 7.325 27.129 7.0551 26.8727 6.9789 C 22.2242 5.5831 19.6489 6.9766 17.0677 8.3735 C 13.8444 10.118 10.6101 11.8687 2.7252 7.3732 Z M 30.342 8.3829 C 30.1025 8.265 29.8125 8.3631 29.6943 8.6026 C 29.5764 8.8418 29.6748 9.1321 29.914 9.25 C 30.4364 9.5088 30.9696 9.7906 31.5136 10.0976 C 32.0593 10.4054 32.6392 10.7512 33.2561 11.1393 C 33.4817 11.2813 33.7805 11.2136 33.9225 10.9877 C 34.0645 10.762 33.9968 10.4632 33.7711 10.3212 C 33.1622 9.9386 32.5675 9.5845 31.9867 9.2568 C 31.4042 8.928 30.8568 8.638 30.342 8.3829 "/></g></g><text x="0" y="51" fill="#000000" font-size="5px" font-weight="bold" font-family="'Helvetica Neue', Helvetica, Arial-Unicode, Arial, Sans-serif">Created by Alvida</text><text x="0" y="56" fill="#000000" font-size="5px" font-weight="bold" font-family="'Helvetica Neue', Helvetica, Arial-Unicode, Arial, Sans-serif">from the Noun Project</text></svg>