<svg width="1138" height="1022" viewBox="0 0 1138 1022" fill="none" xmlns="http://www.w3.org/2000/svg">
<rect x="1" y="1" width="1136" height="1020" stroke="#58C4DD" stroke-width="2"/>
<path d="M337.302 759.328C340.911 743.684 352.345 736.525 363.011 733.272C368.414 731.624 373.605 730.985 377.449 730.758C379.37 730.645 380.951 730.635 382.051 730.654C382.601 730.663 383.03 730.679 383.321 730.693C383.466 730.7 383.577 730.706 383.65 730.71C383.687 730.713 383.715 730.714 383.733 730.716L383.753 730.717L383.758 730.717L383.759 730.718C383.759 730.718 383.759 730.718 383.76 730.703L383.759 730.718L384.003 730.736L384.167 730.554C387.148 727.26 389.206 722.168 390.612 716.199C392.021 710.219 392.79 703.298 393.153 696.291C393.879 682.275 392.983 667.856 392.303 659.801L392.29 659.652L392.197 659.534C332.824 584.038 324.029 521.42 326.872 477.696C328.063 459.388 331.293 444.39 333.724 433.105C334.197 430.905 334.641 428.846 335.033 426.931C336.228 421.092 336.963 416.52 336.568 413.399C336.369 411.826 335.875 410.551 334.943 409.673C334.006 408.79 332.7 408.38 331.029 408.38C318.352 408.38 306.734 406.42 296.318 399.733C285.902 393.047 276.626 381.593 268.715 362.488C265.725 355.099 265.476 350.769 266.694 347.752C267.919 344.717 270.667 342.876 274.125 340.564C277.55 338.275 281.564 335.578 285.006 330.827C288.451 326.074 291.298 319.303 292.486 308.887C293.842 299.384 297.443 290.342 302.992 282.51C308.541 274.676 315.879 268.28 324.396 263.851L324.761 263.662L324.645 263.267C318.935 243.881 316.635 228.948 315.762 218.87C315.325 213.831 315.245 210.006 315.274 207.443C315.289 206.162 315.33 205.197 315.368 204.554C315.369 204.533 315.371 204.512 315.372 204.492C330.462 215.846 343.48 229.725 353.849 245.516L354.76 245.16C351.179 223.466 352.419 201.251 358.391 180.094C384.959 189.675 398.672 208.447 407.801 225.24C410.099 229.467 412.105 233.566 413.954 237.364L414.217 237.903C415.963 241.49 417.576 244.804 419.164 247.674C420.83 250.685 422.485 253.238 424.262 255.125C426.043 257.014 427.975 258.265 430.195 258.609C434.242 259.238 439.324 261.466 444.735 265.119C450.139 268.766 455.841 273.812 461.127 280.038C471.7 292.491 480.583 309.63 482.111 329.673C484.121 356.207 495.137 380.565 505.631 398.272C510.881 407.13 516.004 414.331 519.817 419.32C521.723 421.814 523.302 423.756 524.405 425.075C524.956 425.734 525.389 426.238 525.684 426.578C525.742 426.644 525.795 426.705 525.843 426.759C525.915 426.842 525.975 426.91 526.022 426.962C526.06 427.006 526.089 427.038 526.109 427.06L526.131 427.085L526.137 427.092L526.138 427.094C526.139 427.094 526.139 427.094 526.51 426.76L526.139 427.094L526.254 427.222L526.424 427.252C618.171 443.451 663.806 498.093 686.527 555.349C709.057 612.121 709.052 671.458 709.051 698.452L709.051 699.179V699.196V699.213V699.229V699.246V699.263V699.28V699.296V699.313V699.33V699.347V699.363V699.38V699.397V699.414V699.43V699.447V699.464V699.48V699.497V699.514V699.531V699.547V699.564V699.581V699.597V699.614V699.631V699.647V699.664V699.681V699.697V699.714V699.731V699.747V699.764V699.781V699.797V699.814V699.831V699.847V699.864V699.88V699.897V699.914V699.93V699.947V699.964V699.98V699.997V700.013V700.03V700.047V700.063V700.08V700.096V700.113V700.129V700.146V700.163V700.179V700.196V700.212V700.229V700.245V700.262V700.279V700.295V700.312V700.328V700.345V700.361V700.378V700.394V700.411V700.427V700.444V700.46V700.477V700.494V700.51V700.527V700.543V700.56V700.576V700.593V700.609V700.625V700.642V700.659V700.675V700.691V700.708V700.724V700.741V700.757V700.774V700.79V700.807V700.823V700.84V700.856V700.873V700.889V700.905V700.922V700.938V700.955V700.971V700.988V701.004V701.02V701.037V701.053V701.07V701.086V701.102V701.119V701.135V701.152V701.168V701.184V701.201V701.217V701.234V701.25V701.266V701.283V701.299V701.315V701.332V701.348V701.365V701.381V701.397V701.414V701.43V701.446V701.463V701.479V701.495V701.512V701.528V701.544V701.561V701.577V701.593V701.61V701.626V701.642V701.659V701.675V701.691V701.707V701.724V701.74V701.756V701.773V701.789V701.805V701.821V701.838V701.854V701.87V701.887V701.903V701.919V701.935V701.952V701.968V701.984V702V702.017V702.033V702.049V702.065V702.082V702.098V702.114V702.13V702.147V702.163V702.179V702.195V702.211V702.228V702.244V702.26V702.276V702.292V702.309V702.325V702.341V702.357V702.373V702.39V702.406V702.422V702.438V702.454V702.471V702.487V702.503V702.519V702.535V702.551V702.568V702.584V702.6V702.616V702.632V702.648V702.664V702.681V702.697V702.713V702.729V702.745V702.761V702.777V702.793V702.81V702.826V702.842V702.858V702.874V702.89V702.906V702.922V702.938V702.954V702.971V702.987V703.003V703.019V703.035V703.051V703.067V703.083V703.099V703.115V703.131V703.147V703.164V703.18V703.196V703.212V703.228V703.244V703.26V703.276V703.292V703.308V703.324V703.34V703.356V703.372V703.388V703.404V703.42V703.436V703.452V703.468V703.484V703.5V703.516V703.532V703.548V703.564V703.58V703.596V703.612V703.628V703.644V703.66V703.676V703.692V703.708V703.724V703.74V703.756V703.772V703.788V703.804V703.82V703.836V703.852V703.868V703.884V703.9V703.916V703.932V703.948V703.964V703.979V703.995V704.011V704.027V704.043V704.059V704.075V704.091V704.107V704.123V704.139V704.155V704.171V704.186V704.202V704.218V704.234V704.25V704.266V704.282V704.298V704.314V704.33V704.345V704.361V704.377V704.393V704.409V704.425V704.441V704.457V704.472V704.488V704.504V704.52V704.536V704.552V704.568V704.583V704.599V704.615V704.631V704.647V704.663V704.679V704.694V704.71V704.726V704.742V704.758V704.773V704.789V704.805V704.821V704.837V704.853V704.868V704.884V704.9V704.916V704.932V704.947V704.963V704.979V704.995V705.011V705.026V705.042V705.058V705.074V705.09V705.105V705.121V705.137V705.153V705.168V705.184V705.2V705.216V705.232V705.247V705.263V705.279V705.295V705.31V705.326V705.342V705.358V705.373V705.389V705.405V705.421V705.436V705.452V705.468V705.484V705.499V705.515V705.531V705.546V705.562V705.578V705.594V705.609V705.625V705.641V705.656V705.672V705.688V705.704V705.719V705.735V705.751V705.766V705.782V705.798V705.813V705.829V705.845V705.86V705.876V705.892V705.908V705.923V705.939V705.955V705.97V705.986V706.002V706.017V706.033V706.049V706.064V706.08V706.096V706.111V706.127V706.142V706.158V706.174V706.189V706.205V706.221V706.236V706.252V706.268V706.283V706.299V706.314V706.33V706.346V706.361V706.377V706.393V706.408V706.424V706.439V706.455V706.471V706.486V706.502V706.517V706.533V706.549V706.564V706.58V706.595V706.611V706.627V706.642V706.658V706.673V706.689V706.705V706.72V706.736V706.751V706.767V706.782V706.798V706.814V706.829V706.845V706.86V706.876V706.891V706.907V706.923V706.938V706.954V706.969V706.985V707V707.016V707.031V707.047V707.062V707.078V707.094V707.109V707.125V707.14V707.156V707.171V707.187V707.202V707.218V707.233V707.249V707.264V707.28V707.295V707.311V707.326V707.342V707.357V707.373V707.389V707.404V707.957L709.601 707.901C747.299 704.109 795.914 693.657 827.498 665.797C837.099 657.447 844.857 647.188 850.277 635.675C855.698 624.163 858.663 611.649 858.985 598.928C862.637 535.138 840.938 496.488 818.163 473.787C806.782 462.443 795.143 455.093 786.288 450.577C781.861 448.319 778.128 446.77 775.469 445.783C774.14 445.29 773.079 444.938 772.332 444.708C771.959 444.593 771.664 444.508 771.451 444.452C771.345 444.423 771.258 444.401 771.19 444.386C771.156 444.379 771.124 444.372 771.096 444.367L771.094 444.367C771.087 444.365 771.076 444.363 771.061 444.361C764.748 442.672 759.361 438.549 756.082 432.894C752.796 427.228 751.895 420.488 753.577 414.157C755.259 407.827 759.387 402.424 765.051 399.137C770.716 395.851 777.453 394.95 783.782 396.632C830.281 409.026 915.885 467.772 908.25 601.884L908.25 601.895C907.579 621.17 902.95 640.101 894.652 657.51C886.354 674.92 874.564 690.436 860.016 703.093L860.014 703.095C833.498 726.445 799.424 740.257 766.461 748.355C733.505 756.452 701.693 758.828 679.729 759.328H679.306H337.302Z" fill="#66666A" stroke="white"/>
</svg>
