<svg width="1995" height="1060" viewBox="0 0 1995 1060" fill="none" xmlns="http://www.w3.org/2000/svg">
<path d="M1346.33 829.85H1226.47C1224.6 835.792 1223.47 842.08 1223.47 848.633C1223.47 858.177 1225.76 867.175 1229.57 875.282C1233.23 883.072 1238.46 889.86 1244.82 895.51C1246.6 895.912 1248.28 896.392 1250.23 896.741C1253.58 897.342 1257.21 897.869 1260.98 898.293C1264.76 898.716 1268.7 899.033 1272.81 899.256C1276.92 899.479 1281.19 899.577 1285.54 899.577C1289.9 899.577 1294.12 899.479 1298.23 899.256C1302.33 899.033 1306.33 898.716 1310.11 898.293C1313.88 897.869 1317.45 897.342 1320.81 896.741C1323.62 896.237 1326.16 895.642 1328.62 895.028C1334.52 889.652 1339.39 883.183 1342.91 875.924C1346.92 867.641 1349.33 858.45 1349.33 848.633C1349.33 842.064 1348.2 835.802 1346.33 829.85Z" fill="#23B716" fill-opacity="0.633721" stroke="black" stroke-width="0.841746" stroke-linecap="round" stroke-linejoin="bevel"/>
<path d="M1270.72 724.483V787.682C1249.65 793.108 1232.94 809.217 1226.47 829.85H1346.33C1339.93 809.475 1323.55 793.492 1302.83 787.896V724.483H1270.72Z" fill="white" fill-opacity="0.633721" stroke="black" stroke-width="0.841746" stroke-linecap="round" stroke-linejoin="bevel"/>
<path d="M1311.57 724.275H1261.11V734.368H1311.57V724.275Z" fill="white" fill-opacity="0.633721" stroke="black" stroke-width="1.18951" stroke-linecap="round" stroke-linejoin="bevel"/>
<rect x="1" y="20" width="1922" height="1020" stroke="#58C4DD" stroke-width="2"/>
<path d="M1775.42 394.713H1884.75V504.048H1775.42V394.713Z" fill="#F1CD43" stroke="#FFFA05" stroke-width="2.84753" stroke-linejoin="bevel"/>
<path d="M1775.42 394.686L1729.61 367.094V475.601L1775.42 504.021V394.686Z" fill="#F1CD43" stroke="#FFFA05" stroke-width="2.84753" stroke-linejoin="bevel"/>
<path d="M1838.84 367.032H1729.51L1775.47 394.74H1884.81L1838.84 367.032Z" fill="#F1CD43" stroke="#FFFA05" stroke-width="2.84753" stroke-linejoin="bevel"/>
<path d="M1742.16 400.546L1752.23 406.083L1751.98 481.338L1742.16 474.794V400.546Z" fill="#1E1E25" stroke="black" stroke-width="1.42377" stroke-linecap="round" stroke-linejoin="bevel"/>
<path fill-rule="evenodd" clip-rule="evenodd" d="M1568.39 383.717C1565 383.72 1560.8 384.721 1559.41 389.367C1558.17 393.501 1560.19 396.256 1562.52 397.999C1561.86 396.568 1561.67 394.857 1562.3 392.793C1563.9 387.537 1569.12 386.895 1572.71 387.142C1575.92 386.863 1578.85 387.721 1578.85 387.721L1723.45 414.639L1748.5 419.177L1742.89 415.796L1573.15 384.339C1573.15 384.339 1571.04 383.714 1568.39 383.717Z" fill="#9291A4" stroke="black" stroke-width="1.41344"/>
<path fill-rule="evenodd" clip-rule="evenodd" d="M1748.63 419.214L1576.3 387.735C1576.3 387.735 1564.82 384.536 1562.3 392.793C1559.79 401.051 1570.56 403.923 1570.56 403.923L1748.64 447.006L1748.63 419.214Z" fill="#F4F4F6" stroke="black" stroke-width="1.42377"/>
<path d="M1577.28 396.129C1577.28 396.713 1577.16 397.291 1576.94 397.831C1576.72 398.371 1576.39 398.862 1575.98 399.275C1575.57 399.688 1575.08 400.016 1574.54 400.24C1574 400.464 1573.42 400.579 1572.84 400.579C1572.25 400.579 1571.67 400.464 1571.13 400.24C1570.59 400.016 1570.1 399.688 1569.69 399.275C1569.28 398.862 1568.95 398.371 1568.73 397.831C1568.51 397.291 1568.39 396.713 1568.39 396.129C1568.39 395.545 1568.51 394.966 1568.73 394.426C1568.95 393.886 1569.28 393.396 1569.69 392.982C1570.1 392.569 1570.59 392.241 1571.13 392.017C1571.67 391.794 1572.25 391.678 1572.84 391.678C1573.42 391.678 1574 391.794 1574.54 392.017C1575.08 392.241 1575.57 392.569 1575.98 392.982C1576.39 393.396 1576.72 393.886 1576.94 394.426C1577.16 394.966 1577.28 395.545 1577.28 396.129Z" fill="#1B1A20" stroke="black" stroke-width="1.42377" stroke-linecap="round" stroke-linejoin="bevel"/>
<path d="M1571.42 396.428L1550.42 763.117C1544.97 767.521 1516.84 795.03 1516.84 795.03L1551.91 764.495L1518.26 796.809L1553.69 766.453" stroke="white" stroke-width="1.42377"/>
<path d="M1455.43 222.289H1564.76V331.623H1455.43V222.289Z" fill="black" stroke="black" stroke-width="2.84753" stroke-linejoin="bevel"/>
<path d="M1455.43 222.262L1409.61 194.669V303.176L1455.43 331.597V222.262Z" fill="#4B43F1" stroke="black" stroke-width="2.84753" stroke-linejoin="bevel"/>
<path d="M1518.85 194.608H1409.51L1455.48 222.315H1564.81L1518.85 194.608Z" fill="#4B43F1" stroke="black" stroke-width="2.848" stroke-linejoin="round"/>
<g opacity="0.9">
<path fill-rule="evenodd" clip-rule="evenodd" d="M1557.41 257.512C1567.91 283.451 1555.58 313.037 1529.81 323.739C1504.04 334.44 1474.49 322.24 1463.68 296.43C1452.87 270.62 1464.84 240.887 1490.48 229.876C1516.13 218.865 1545.81 230.709 1556.94 256.387" fill="black"/>
<path d="M1557.41 257.512C1567.91 283.451 1555.58 313.037 1529.81 323.739C1504.04 334.44 1474.49 322.24 1463.68 296.43C1452.87 270.62 1464.84 240.887 1490.48 229.876C1516.13 218.865 1545.81 230.709 1556.94 256.387" stroke="black" stroke-width="3.67447" stroke-linecap="round" stroke-linejoin="round"/>
</g>
<path d="M1510.57 285.877C1515.46 285.877 1519.43 281.953 1519.43 277.113C1519.43 272.272 1515.46 268.348 1510.57 268.348C1505.68 268.348 1501.71 272.272 1501.71 277.113C1501.71 281.953 1505.68 285.877 1510.57 285.877Z" fill="#F1CD43"/>
<path d="M1523.86 277.113C1523.86 272.416 1521.33 268.076 1517.22 265.727L1532.72 239.162C1546.42 246.99 1554.87 261.457 1554.87 277.113H1523.86Z" fill="#F1CD43"/>
<path d="M1503.93 288.498C1508.04 290.846 1513.1 290.846 1517.22 288.498L1532.72 315.063C1519.01 322.891 1502.13 322.891 1488.42 315.063L1503.93 288.498Z" fill="#F1CD43"/>
<path d="M1503.93 265.727C1499.82 268.076 1497.28 272.416 1497.28 277.113L1466.28 277.113C1466.28 261.457 1474.72 246.99 1488.42 239.162L1503.93 265.727Z" fill="#F1CD43"/>
<path d="M1342.16 876.238H1230.27C1233.88 883.371 1238.68 889.759 1244.61 895.021C1246.39 895.424 1248.07 895.85 1250.01 896.198C1253.37 896.8 1256.94 897.327 1260.72 897.75C1264.49 898.174 1268.49 898.491 1272.6 898.713C1276.71 898.936 1280.92 899.088 1285.28 899.088C1289.63 899.088 1293.91 898.937 1298.02 898.713C1302.12 898.491 1306.07 898.174 1309.84 897.75C1313.62 897.327 1317.24 896.8 1320.6 896.198C1323.41 895.695 1325.95 895.1 1328.41 894.486C1334.08 889.321 1338.68 883.149 1342.16 876.238Z" fill="#23B716" fill-opacity="0.633721" stroke="black" stroke-width="0.841746" stroke-linecap="round" stroke-linejoin="bevel"/>
<path d="M1513.08 275.967L1731.25 404.446" stroke="#FF0E0E" stroke-width="7.11883" stroke-dasharray="14.24 7.12"/>
<path d="M337.302 778.328C340.911 762.684 352.345 755.525 363.011 752.272C368.414 750.624 373.605 749.985 377.449 749.758C379.37 749.645 380.951 749.635 382.051 749.654C382.601 749.663 383.03 749.679 383.321 749.693C383.466 749.7 383.577 749.706 383.651 749.71C383.687 749.713 383.715 749.714 383.733 749.716L383.753 749.717L383.758 749.717L383.759 749.718C383.759 749.718 383.759 749.718 383.76 749.703L383.759 749.718L384.003 749.736L384.167 749.554C387.148 746.26 389.206 741.168 390.612 735.199C392.021 729.219 392.79 722.298 393.153 715.291C393.879 701.275 392.983 686.856 392.303 678.801L392.29 678.652L392.198 678.534C332.824 603.038 324.029 540.42 326.872 496.696C328.063 478.388 331.293 463.39 333.724 452.105C334.197 449.905 334.641 447.846 335.033 445.931C336.228 440.092 336.963 435.52 336.568 432.399C336.369 430.826 335.875 429.551 334.943 428.673C334.006 427.79 332.7 427.38 331.03 427.38C318.352 427.38 306.734 425.42 296.318 418.733C285.902 412.047 276.626 400.593 268.715 381.488C265.725 374.099 265.476 369.769 266.694 366.752C267.919 363.717 270.667 361.876 274.125 359.564C277.55 357.275 281.564 354.578 285.006 349.827C288.451 345.074 291.299 338.303 292.486 327.887C293.842 318.384 297.443 309.342 302.992 301.51C308.541 293.676 315.879 287.28 324.396 282.851L324.761 282.662L324.645 282.267C318.935 262.881 316.635 247.948 315.762 237.87C315.325 232.831 315.246 229.006 315.274 226.443C315.289 225.162 315.33 224.197 315.368 223.554C315.369 223.533 315.371 223.512 315.372 223.492C330.462 234.846 343.48 248.725 353.849 264.516L354.76 264.16C351.179 242.466 352.419 220.251 358.391 199.094C384.959 208.675 398.672 227.447 407.801 244.24C410.099 248.467 412.105 252.566 413.954 256.364L414.217 256.903C415.963 260.49 417.576 263.804 419.164 266.674C420.83 269.685 422.485 272.238 424.262 274.125C426.043 276.014 427.975 277.265 430.195 277.609C434.242 278.238 439.324 280.466 444.735 284.119C450.139 287.766 455.841 292.812 461.127 299.038C471.7 311.491 480.583 328.63 482.111 348.673C484.121 375.207 495.137 399.565 505.631 417.272C510.881 426.13 516.004 433.331 519.817 438.32C521.723 440.814 523.302 442.756 524.405 444.075C524.956 444.734 525.389 445.238 525.684 445.578C525.742 445.644 525.795 445.705 525.843 445.759C525.915 445.842 525.975 445.91 526.022 445.962C526.06 446.006 526.089 446.038 526.109 446.06L526.131 446.085L526.137 446.092L526.138 446.094C526.139 446.094 526.139 446.094 526.511 445.76L526.139 446.094L526.254 446.222L526.424 446.252C618.171 462.451 663.806 517.093 686.528 574.349C709.057 631.121 709.052 690.458 709.051 717.452L709.051 718.179V718.196V718.213V718.229V718.246V718.263V718.28V718.296V718.313V718.33V718.347V718.363V718.38V718.397V718.414V718.43V718.447V718.464V718.48V718.497V718.514V718.531V718.547V718.564V718.581V718.597V718.614V718.631V718.647V718.664V718.681V718.697V718.714V718.731V718.747V718.764V718.781V718.797V718.814V718.831V718.847V718.864V718.88V718.897V718.914V718.93V718.947V718.964V718.98V718.997V719.013V719.03V719.047V719.063V719.08V719.096V719.113V719.129V719.146V719.163V719.179V719.196V719.212V719.229V719.245V719.262V719.279V719.295V719.312V719.328V719.345V719.361V719.378V719.394V719.411V719.427V719.444V719.46V719.477V719.494V719.51V719.527V719.543V719.56V719.576V719.593V719.609V719.625V719.642V719.659V719.675V719.691V719.708V719.724V719.741V719.757V719.774V719.79V719.807V719.823V719.84V719.856V719.873V719.889V719.905V719.922V719.938V719.955V719.971V719.988V720.004V720.02V720.037V720.053V720.07V720.086V720.102V720.119V720.135V720.152V720.168V720.184V720.201V720.217V720.234V720.25V720.266V720.283V720.299V720.315V720.332V720.348V720.365V720.381V720.397V720.414V720.43V720.446V720.463V720.479V720.495V720.512V720.528V720.544V720.561V720.577V720.593V720.61V720.626V720.642V720.659V720.675V720.691V720.707V720.724V720.74V720.756V720.773V720.789V720.805V720.821V720.838V720.854V720.87V720.887V720.903V720.919V720.935V720.952V720.968V720.984V721V721.017V721.033V721.049V721.065V721.082V721.098V721.114V721.13V721.147V721.163V721.179V721.195V721.211V721.228V721.244V721.26V721.276V721.292V721.309V721.325V721.341V721.357V721.373V721.39V721.406V721.422V721.438V721.454V721.471V721.487V721.503V721.519V721.535V721.551V721.568V721.584V721.6V721.616V721.632V721.648V721.664V721.681V721.697V721.713V721.729V721.745V721.761V721.777V721.793V721.81V721.826V721.842V721.858V721.874V721.89V721.906V721.922V721.938V721.954V721.971V721.987V722.003V722.019V722.035V722.051V722.067V722.083V722.099V722.115V722.131V722.147V722.164V722.18V722.196V722.212V722.228V722.244V722.26V722.276V722.292V722.308V722.324V722.34V722.356V722.372V722.388V722.404V722.42V722.436V722.452V722.468V722.484V722.5V722.516V722.532V722.548V722.564V722.58V722.596V722.612V722.628V722.644V722.66V722.676V722.692V722.708V722.724V722.74V722.756V722.772V722.788V722.804V722.82V722.836V722.852V722.868V722.884V722.9V722.916V722.932V722.948V722.964V722.979V722.995V723.011V723.027V723.043V723.059V723.075V723.091V723.107V723.123V723.139V723.155V723.171V723.186V723.202V723.218V723.234V723.25V723.266V723.282V723.298V723.314V723.33V723.345V723.361V723.377V723.393V723.409V723.425V723.441V723.457V723.472V723.488V723.504V723.52V723.536V723.552V723.568V723.583V723.599V723.615V723.631V723.647V723.663V723.679V723.694V723.71V723.726V723.742V723.758V723.773V723.789V723.805V723.821V723.837V723.853V723.868V723.884V723.9V723.916V723.932V723.947V723.963V723.979V723.995V724.011V724.026V724.042V724.058V724.074V724.09V724.105V724.121V724.137V724.153V724.168V724.184V724.2V724.216V724.232V724.247V724.263V724.279V724.295V724.31V724.326V724.342V724.358V724.373V724.389V724.405V724.421V724.436V724.452V724.468V724.484V724.499V724.515V724.531V724.546V724.562V724.578V724.594V724.609V724.625V724.641V724.656V724.672V724.688V724.704V724.719V724.735V724.751V724.766V724.782V724.798V724.813V724.829V724.845V724.86V724.876V724.892V724.908V724.923V724.939V724.955V724.97V724.986V725.002V725.017V725.033V725.049V725.064V725.08V725.096V725.111V725.127V725.142V725.158V725.174V725.189V725.205V725.221V725.236V725.252V725.268V725.283V725.299V725.314V725.33V725.346V725.361V725.377V725.393V725.408V725.424V725.439V725.455V725.471V725.486V725.502V725.517V725.533V725.549V725.564V725.58V725.595V725.611V725.627V725.642V725.658V725.673V725.689V725.705V725.72V725.736V725.751V725.767V725.782V725.798V725.814V725.829V725.845V725.86V725.876V725.891V725.907V725.923V725.938V725.954V725.969V725.985V726V726.016V726.031V726.047V726.062V726.078V726.094V726.109V726.125V726.14V726.156V726.171V726.187V726.202V726.218V726.233V726.249V726.264V726.28V726.295V726.311V726.326V726.342V726.357V726.373V726.389V726.404V726.957L709.601 726.901C747.299 723.109 795.914 712.657 827.498 684.797C837.099 676.447 844.857 666.188 850.277 654.675C855.698 643.163 858.663 630.649 858.985 617.928C862.637 554.138 840.938 515.488 818.164 492.787C806.782 481.443 795.143 474.093 786.288 469.577C781.861 467.319 778.128 465.77 775.469 464.783C774.14 464.29 773.079 463.938 772.332 463.708C771.96 463.593 771.664 463.508 771.451 463.452C771.346 463.423 771.258 463.401 771.19 463.386C771.156 463.379 771.124 463.372 771.096 463.367L771.094 463.367C771.087 463.365 771.076 463.363 771.061 463.361C764.748 461.672 759.361 457.549 756.082 451.894C752.796 446.228 751.895 439.488 753.577 433.157C755.259 426.827 759.387 421.424 765.051 418.137C770.716 414.851 777.453 413.95 783.782 415.632C830.281 428.026 915.885 486.772 908.25 620.884L908.25 620.895C907.579 640.17 902.95 659.101 894.652 676.51C886.354 693.92 874.565 709.436 860.016 722.093L860.014 722.095C833.498 745.445 799.425 759.257 766.461 767.355C733.505 775.452 701.693 777.828 679.729 778.328H679.306H337.302Z" fill="#66666A" stroke="white"/>
<path d="M1295.86 646.747L1312.73 629.734C1316.88 627.176 1325.65 625.837 1328.14 623.122C1330.53 620.721 1331.63 616.932 1332.15 614.157C1333.19 608.595 1335.75 603.575 1339.54 599.618C1353.14 585.453 1389.42 555.299 1432.42 581.326C1436.36 583.57 1434.89 589.965 1430.35 590.255C1421.18 591.087 1395.63 595.829 1387.67 607.606C1385.31 611.105 1384.78 615.026 1385.9 619.515L1464.79 699.054C1466.67 696.351 1470.68 694.71 1473.26 697.461L1563.57 788.512C1578.48 802.919 1567.63 829.934 1546.67 829.489C1540.27 829.489 1534.27 826.992 1529.76 822.443L1439.45 731.392C1436.64 728.423 1438.42 725.142 1441.11 722.933L1362.88 644.071C1360.49 644.59 1356.25 645.965 1352.58 649.67C1350.06 652.083 1349.08 660.143 1346.69 663.847L1329.83 680.848C1328.03 682.742 1324.74 682.742 1322.93 680.848L1295.83 653.53C1293.97 651.648 1293.97 648.62 1295.83 646.749L1295.86 646.747ZM1536.65 815.66C1550.46 828.426 1569.58 808.975 1556.68 795.305L1469.82 707.719C1469.82 707.719 1449.94 727.725 1449.71 727.99L1536.65 815.65L1536.65 815.66ZM1447.93 716.068L1457.98 705.933L1381.47 628.794L1371.42 638.929L1447.93 716.068ZM1362.34 634.345C1364.4 632.27 1373.87 622.726 1376.12 620.457C1371.31 598.63 1396.31 587.181 1413.8 583.366C1382.74 573.605 1357.04 595.372 1346.56 606.291C1339.91 613 1342.64 622.568 1335.05 629.905C1332.83 632.137 1328.86 633.995 1325.2 635.358L1340.99 651.285C1342.19 648.1 1343.77 644.83 1345.7 642.887C1351.76 636.782 1358.9 634.912 1362.35 634.344L1362.34 634.345ZM1326.4 670.59L1336.45 660.455L1316.17 640.003L1306.12 650.151L1326.4 670.603V670.59Z" fill="#FC6255"/>
</svg>
