<svg width="1995" height="1060" viewBox="0 0 1995 1060" fill="none" xmlns="http://www.w3.org/2000/svg">
<g clip-path="url(#clip0_4_2)">
<path d="M1775.42 394.713H1884.75V504.048H1775.42V394.713Z" fill="#F1CD43" stroke="#FFFA05" stroke-width="2.84753" stroke-linejoin="bevel"/>
<path d="M1775.42 394.686L1729.61 367.094V475.601L1775.42 504.021V394.686Z" fill="#F1CD43" stroke="#FFFA05" stroke-width="2.84753" stroke-linejoin="bevel"/>
<path d="M1838.84 367.032H1729.51L1775.47 394.74H1884.81L1838.84 367.032Z" fill="#F1CD43" stroke="#FFFA05" stroke-width="2.84753" stroke-linejoin="bevel"/>
<path d="M1742.16 400.546L1752.23 406.083L1751.98 481.338L1742.16 474.794V400.546Z" fill="#1E1E25" stroke="black" stroke-width="1.42377" stroke-linecap="round" stroke-linejoin="bevel"/>
<path d="M1455.43 222.289H1564.76V331.624H1455.43V222.289Z" fill="black" stroke="black" stroke-width="2.84753" stroke-linejoin="bevel"/>
<path d="M1455.43 222.262L1409.61 194.669V303.176L1455.43 331.597V222.262Z" fill="#4B43F1" stroke="black" stroke-width="2.84753" stroke-linejoin="bevel"/>
<path d="M1518.85 194.608H1409.51L1455.48 222.315H1564.81L1518.85 194.608Z" fill="#4B43F1" stroke="black" stroke-width="2.848" stroke-linejoin="round"/>
<g opacity="0.9">
<path fill-rule="evenodd" clip-rule="evenodd" d="M1557.41 257.512C1567.91 283.45 1555.58 313.037 1529.81 323.738C1504.04 334.44 1474.49 322.24 1463.68 296.43C1452.87 270.62 1464.84 240.887 1490.48 229.876C1516.13 218.865 1545.81 230.709 1556.94 256.387" fill="black"/>
<path d="M1557.41 257.512C1567.91 283.45 1555.58 313.037 1529.81 323.738C1504.04 334.44 1474.49 322.24 1463.68 296.43C1452.87 270.62 1464.84 240.887 1490.48 229.876C1516.13 218.865 1545.81 230.709 1556.94 256.387" stroke="black" stroke-width="3.67447" stroke-linecap="round" stroke-linejoin="round"/>
</g>
<path d="M1510.57 285.877C1515.46 285.877 1519.43 281.953 1519.43 277.112C1519.43 272.272 1515.46 268.348 1510.57 268.348C1505.68 268.348 1501.71 272.272 1501.71 277.112C1501.71 281.953 1505.68 285.877 1510.57 285.877Z" fill="#F1CD43"/>
<path d="M1523.86 277.113C1523.86 272.416 1521.33 268.076 1517.22 265.727L1532.72 239.162C1546.42 246.99 1554.87 261.457 1554.87 277.113H1523.86Z" fill="#F1CD43"/>
<path d="M1503.93 288.498C1508.04 290.846 1513.1 290.846 1517.22 288.498L1532.72 315.063C1519.01 322.891 1502.13 322.891 1488.42 315.063L1503.93 288.498Z" fill="#F1CD43"/>
<path d="M1503.93 265.727C1499.82 268.076 1497.28 272.416 1497.28 277.113L1466.28 277.112C1466.28 261.457 1474.72 246.99 1488.42 239.162L1503.93 265.727Z" fill="#F1CD43"/>
<path fill-rule="evenodd" clip-rule="evenodd" d="M1303.2 838.424C1270.5 834.791 1210.03 840.58 1186.95 826.315C1162.16 810.987 1063.95 822.253 1117.94 859.009C1173.61 896.914 1047.89 942.593 1193.01 921.973C1237.81 917.13 1308.04 928.027 1326.2 928.027C1344.37 928.027 1402.49 925.606 1392.8 896.545C1383.11 867.484 1358.9 837.213 1346.79 837.213C1334.68 837.213 1301.99 839.635 1303.2 838.424Z" fill="#22B716" fill-opacity="0.635294" stroke="black" stroke-width="1.71241"/>
<path d="M1342.16 876.238H1230.27C1233.88 883.371 1238.68 889.759 1244.61 895.021C1246.39 895.424 1248.07 895.85 1250.01 896.198C1253.37 896.8 1256.94 897.327 1260.72 897.75C1264.49 898.174 1268.49 898.491 1272.6 898.714C1276.71 898.936 1280.92 899.088 1285.28 899.088C1289.63 899.088 1293.91 898.937 1298.02 898.714C1302.12 898.491 1306.07 898.174 1309.84 897.75C1313.62 897.327 1317.24 896.8 1320.6 896.198C1323.41 895.695 1325.95 895.1 1328.41 894.486C1334.08 889.321 1338.68 883.149 1342.16 876.238Z" fill="#23B716" fill-opacity="0.633721" stroke="black" stroke-width="0.841746" stroke-linecap="round" stroke-linejoin="bevel"/>
<path fill-rule="evenodd" clip-rule="evenodd" d="M1623.54 561.64C1621.92 564.624 1620.79 568.788 1624.2 572.236C1627.24 575.303 1630.62 574.847 1633.27 573.634C1631.7 573.525 1630.1 572.877 1628.59 571.337C1624.74 567.416 1626.68 562.526 1628.62 559.491C1629.91 556.539 1632.06 554.378 1632.06 554.378L1752.49 416.473L1752.37 411.973L1626.37 557.758C1626.37 557.759 1624.81 559.319 1623.54 561.64Z" fill="#9291A4" stroke="black" stroke-width="1.41344"/>
<path fill-rule="evenodd" clip-rule="evenodd" d="M1752.06 416.268L1630.87 556.613C1630.87 556.613 1622.55 565.18 1628.6 571.34C1634.65 577.5 1642.3 569.427 1642.3 569.427L1752.02 448.496V426.427L1752.06 416.268Z" fill="#F4F4F6" stroke="black" stroke-width="1.42377"/>
<path d="M1638.69 559.784C1639.21 560.063 1639.66 560.44 1640.03 560.894C1640.39 561.348 1640.67 561.87 1640.83 562.43C1641 562.991 1641.05 563.578 1640.99 564.159C1640.93 564.739 1640.75 565.302 1640.47 565.815C1640.19 566.328 1639.82 566.78 1639.36 567.147C1638.91 567.513 1638.38 567.787 1637.82 567.951C1637.26 568.115 1636.68 568.168 1636.09 568.105C1635.51 568.042 1634.95 567.865 1634.44 567.584C1633.93 567.306 1633.47 566.929 1633.11 566.475C1632.74 566.02 1632.46 565.498 1632.3 564.938C1632.13 564.378 1632.08 563.79 1632.14 563.21C1632.2 562.629 1632.38 562.066 1632.66 561.553C1632.94 561.041 1633.32 560.588 1633.77 560.222C1634.23 559.855 1634.75 559.582 1635.31 559.417C1635.87 559.253 1636.46 559.201 1637.04 559.264C1637.62 559.327 1638.18 559.503 1638.69 559.784Z" fill="#1B1A20" stroke="black" stroke-width="1.42377" stroke-linecap="round" stroke-linejoin="bevel"/>
<path d="M1259.59 834.766C1259.59 834.766 1254.45 840.822 1249 846.271C1246.27 848.995 1243.51 851.585 1241.24 853.174C1240.1 853.968 1239.09 854.527 1238.3 854.726C1237.5 854.925 1236.89 854.796 1236.58 854.191C1235.98 852.98 1234.25 851.198 1231.98 849.268C1229.71 847.338 1226.89 845.242 1224.17 843.274C1223.97 843.133 1223.99 843.146 1223.79 843.007C1223.65 844.73 1223.26 846.385 1223.26 848.144C1223.26 857.688 1225.55 866.633 1229.36 874.74C1229.61 875.274 1230 875.713 1230.27 876.238H1342.16C1342.3 875.957 1342.51 875.719 1342.65 875.435C1344.04 872.55 1344.98 869.431 1345.96 866.338L1338.31 859.007C1338.31 859.007 1302 861.415 1297.16 861.415C1295.95 861.415 1294.81 860.925 1293.79 860.131C1292.77 859.336 1291.87 858.247 1291.11 857.188C1289.6 855.069 1288.65 852.96 1288.65 852.96L1260.82 875.971L1259.59 834.766Z" fill="white" fill-opacity="0.633721" stroke="black" stroke-width="0.841746" stroke-linecap="round" stroke-linejoin="bevel"/>
<path d="M1636.08 563.554C1624.33 575.116 1630.45 675.057 1636.08 693.116C1641.84 707.193 1653.15 717.726 1661.7 730.134C1683.77 759.573 1697.3 769.936 1697.3 807.018C1700.4 852.077 1637.3 828.497 1607.53 833.07C1601.01 834.071 1506.97 833.96 1500.58 835.559C1489.71 838.276 1505.66 878.906 1494.43 880.778" stroke="white" stroke-width="1.42377"/>
<path d="M1494.88 880.591C1494.23 878.237 1493.16 834.142 1493.16 834.142L1491.66 878.879L1490.59 834.142" stroke="black" stroke-width="1.71241"/>
<path d="M1136.78 790.297C1125.53 802.812 1119.51 819.55 1120.67 836.692L1060.74 857.348L1071.23 887.743L1131.06 867.034C1140.51 881.212 1155.29 890.728 1171.67 893.897C1171.66 893.497 1171.63 893.174 1171.62 892.774C1171.51 890.007 1171.46 887.954 1171.35 885.228L1162.73 874.74H1170.92C1170.7 868.818 1170.45 862.092 1170.28 857.348L1162.15 850.552L1169.8 842.632C1169.8 842.491 1169.75 840.919 1169.75 840.919L1165.52 833.053L1160.92 833.588L1161.56 825.722L1159.1 821.066L1153.05 825.08L1145.18 822.083L1148.23 809.989L1150.37 804.745L1146.9 798.27L1136.09 800.892L1136.78 790.297Z" fill="white" fill-opacity="0.633721" stroke="black" stroke-width="0.841746" stroke-linecap="round" stroke-linejoin="bevel"/>
<path d="M1056.89 849.464L1073.36 897.165L1082.9 893.87L1066.43 846.169L1056.89 849.464Z" fill="white" fill-opacity="0.633721" stroke="black" stroke-width="1.18951" stroke-linecap="round" stroke-linejoin="bevel"/>
<path d="M1224.49 814.812C1224.49 816.257 1222.39 817.643 1218.64 818.665C1214.89 819.687 1209.81 820.261 1204.51 820.261C1199.21 820.261 1194.13 819.687 1190.38 818.665C1186.64 817.643 1184.53 816.257 1184.53 814.812C1184.53 813.367 1186.64 811.981 1190.38 810.959C1194.13 809.937 1199.21 809.363 1204.51 809.363C1209.81 809.363 1214.89 809.937 1218.64 810.959C1222.39 811.981 1224.49 813.367 1224.49 814.812Z" fill="#22B716" fill-opacity="0.635294" stroke="black" stroke-width="1.71241" stroke-linecap="round" stroke-linejoin="bevel"/>
<path d="M1358.78 952.348C1358.78 953.937 1358.06 955.511 1356.65 956.98C1355.24 958.448 1353.17 959.783 1350.56 960.907C1347.96 962.031 1344.86 962.923 1341.46 963.531C1338.05 964.14 1334.4 964.453 1330.71 964.453C1327.02 964.453 1323.37 964.14 1319.96 963.531C1316.55 962.923 1313.46 962.031 1310.85 960.907C1308.25 959.783 1306.18 958.448 1304.77 956.98C1303.36 955.511 1302.64 953.937 1302.64 952.348C1302.64 950.759 1303.36 949.185 1304.77 947.717C1306.18 946.248 1308.25 944.914 1310.85 943.79C1313.46 942.666 1316.55 941.774 1319.96 941.165C1323.37 940.557 1327.02 940.244 1330.71 940.244C1334.4 940.244 1338.05 940.557 1341.46 941.165C1344.86 941.774 1347.96 942.666 1350.56 943.79C1353.17 944.914 1355.24 946.248 1356.65 947.717C1358.06 949.185 1358.78 950.759 1358.78 952.348Z" fill="#22B716" fill-opacity="0.635294" stroke="black" stroke-width="1.95148" stroke-linecap="round" stroke-linejoin="bevel"/>
<path d="M1264.93 950.643C1264.93 951.607 1263.27 952.531 1260.32 953.212C1257.36 953.893 1253.36 954.276 1249.19 954.276C1245.01 954.276 1241.01 953.893 1238.06 953.212C1235.1 952.531 1233.44 951.607 1233.44 950.643C1233.44 949.68 1235.1 948.756 1238.06 948.075C1241.01 947.393 1245.01 947.011 1249.19 947.011C1253.36 947.011 1257.36 947.393 1260.32 948.075C1263.27 948.756 1264.93 949.68 1264.93 950.643Z" fill="#22B716" fill-opacity="0.635294" stroke="black" stroke-width="1.71241" stroke-linecap="round" stroke-linejoin="bevel"/>
<path d="M1491.27 917.259C1491.27 919.667 1489.67 921.977 1486.84 923.68C1484 925.383 1480.15 926.34 1476.13 926.34C1472.12 926.34 1468.27 925.383 1465.43 923.68C1462.59 921.977 1461 919.667 1461 917.259C1461 914.85 1462.59 912.54 1465.43 910.837C1468.27 909.134 1472.12 908.177 1476.13 908.177C1480.15 908.177 1484 909.134 1486.84 910.837C1489.67 912.54 1491.27 914.85 1491.27 917.259Z" fill="#22B716" fill-opacity="0.635294" stroke="black" stroke-width="1.71241" stroke-linecap="round" stroke-linejoin="bevel"/>
<path d="M1044.07 913.497C1044.07 914.461 1043.31 915.384 1041.94 916.066C1040.58 916.747 1038.73 917.13 1036.81 917.13C1034.88 917.13 1033.03 916.747 1031.67 916.066C1030.31 915.384 1029.54 914.461 1029.54 913.497C1029.54 912.534 1030.31 911.61 1031.67 910.928C1033.03 910.247 1034.88 909.865 1036.81 909.865C1038.73 909.865 1040.58 910.247 1041.94 910.928C1043.31 911.61 1044.07 912.534 1044.07 913.497Z" fill="#22B716" fill-opacity="0.635294" stroke="black" stroke-width="1.71241" stroke-linecap="round" stroke-linejoin="bevel"/>
<path d="M1412.38 935.049C1412.38 936.012 1410.72 936.936 1407.77 937.617C1404.82 938.299 1400.81 938.681 1396.64 938.681C1392.46 938.681 1388.46 938.299 1385.51 937.617C1382.56 936.936 1380.9 936.012 1380.9 935.049C1380.9 934.085 1382.56 933.161 1385.51 932.48C1388.46 931.799 1392.46 931.416 1396.64 931.416C1400.81 931.416 1404.82 931.799 1407.77 932.48C1410.72 933.161 1412.38 934.085 1412.38 935.049Z" fill="#22B716" fill-opacity="0.635294" stroke="black" stroke-width="1.71241" stroke-linecap="round" stroke-linejoin="bevel"/>
<path d="M1316.49 822.886C1316.49 823.849 1314.83 824.773 1311.88 825.455C1308.92 826.136 1304.92 826.518 1300.74 826.518C1296.57 826.518 1292.57 826.136 1289.61 825.455C1286.66 824.773 1285 823.849 1285 822.886C1285 821.922 1286.66 820.999 1289.61 820.317C1292.57 819.636 1296.57 819.253 1300.74 819.253C1304.92 819.253 1308.92 819.636 1311.88 820.317C1314.83 820.999 1316.49 821.922 1316.49 822.886Z" fill="#22B716" fill-opacity="0.635294" stroke="black" stroke-width="1.71241" stroke-linecap="round" stroke-linejoin="bevel"/>
<path d="M1254.84 796.344C1254.84 797.307 1253.18 798.231 1250.23 798.912C1247.28 799.593 1243.27 799.976 1239.1 799.976C1234.92 799.976 1230.92 799.593 1227.97 798.912C1225.02 798.231 1223.36 797.307 1223.36 796.344C1223.36 795.38 1225.02 794.456 1227.97 793.775C1230.92 793.094 1234.92 792.711 1239.1 792.711C1243.27 792.711 1247.28 793.094 1250.23 793.775C1253.18 794.456 1254.84 795.38 1254.84 796.344Z" fill="#22B716" fill-opacity="0.635294" stroke="black" stroke-width="1.71241" stroke-linecap="round" stroke-linejoin="bevel"/>
<path d="M1040.79 888.814C1040.79 889.777 1039.13 890.701 1036.18 891.382C1033.23 892.064 1029.22 892.446 1025.05 892.446C1020.87 892.446 1016.87 892.064 1013.92 891.382C1010.96 890.701 1009.31 889.777 1009.31 888.814C1009.31 887.85 1010.96 886.926 1013.92 886.245C1016.87 885.564 1020.87 885.181 1025.05 885.181C1029.22 885.181 1033.23 885.564 1036.18 886.245C1039.13 886.926 1040.79 887.85 1040.79 888.814Z" fill="#22B716" fill-opacity="0.635294" stroke="black" stroke-width="1.71241" stroke-linecap="round" stroke-linejoin="bevel"/>
<path d="M1513.08 275.967L1731.25 404.446" stroke="#FF0E0E" stroke-width="7.11883" stroke-dasharray="14.24 7.12"/>
<rect x="36" y="20" width="1922" height="1020" stroke="#58C4DD" stroke-width="2"/>
<g clip-path="url(#clip1_4_2)">
<path d="M1273.11 869.875L1278.25 850.4C1280.2 846.793 1286.02 842.135 1286.69 839.11C1287.42 836.359 1286.63 833.138 1285.85 830.898C1284.27 826.41 1284.02 821.682 1285.12 817.208C1289.07 801.18 1302.82 763.982 1345.07 764.872C1348.89 764.849 1350.5 770.126 1347.31 772.244C1340.99 776.701 1324.37 790.887 1323.52 802.805C1323.28 806.345 1324.53 809.424 1327.24 812.22L1418.1 837C1418.33 834.243 1420.56 831.365 1423.59 832.284L1527.61 860.65C1544.51 864.879 1547.96 889.109 1532.51 897.591C1527.85 900.276 1522.43 900.981 1517.24 899.56L1413.23 871.195C1409.94 870.213 1409.85 867.076 1410.88 864.338L1320.79 839.771C1319.26 841.156 1316.76 843.938 1315.64 848.177C1314.82 850.992 1317.49 857.273 1317.31 860.973L1312.17 880.438C1311.66 882.571 1309.26 883.954 1307.15 883.333L1275.94 874.824C1273.79 874.237 1272.52 872.032 1273.09 869.887L1273.11 869.875ZM1519.41 891.726C1534.82 895.223 1540.58 873.028 1525.44 868.491L1425.4 841.199C1425.4 841.199 1419.32 864.119 1419.27 864.409L1519.4 891.719L1519.41 891.726ZM1412.97 856.474L1416.03 844.872L1327.91 820.838L1324.85 832.441L1412.97 856.474ZM1316.31 832.917C1316.94 830.541 1319.83 819.613 1320.51 817.015C1307.84 803.14 1321.23 784.304 1332.37 774.176C1305.65 780.116 1296.08 806.764 1293.04 819.116C1291.02 826.794 1297.02 832.617 1294.57 841.148C1293.9 843.705 1291.78 846.726 1289.69 849.255L1307.88 854.22C1307.42 851.397 1307.19 848.354 1307.78 846.126C1309.63 839.137 1314.05 834.774 1316.32 832.911L1316.31 832.917ZM1305.37 874.408L1308.43 862.806L1285.07 856.433L1282.01 868.044L1305.37 874.417L1305.37 874.408Z" fill="#FC6255"/>
</g>
<path d="M877.429 454.334C868.614 444.867 853.921 444.219 844.505 453.093C835.098 461.858 834.5 476.61 843.205 486.068C843.863 486.837 909.142 558.959 877.568 635.349C860.002 677.934 828.564 702.983 784.122 709.955C778.362 710.887 772.746 711.388 767.367 711.686C814.745 664.909 852.479 593.803 835.02 530.156C834.692 528.695 834.306 527.285 833.8 525.975C833.422 524.455 832.874 522.976 832.378 521.557C832.057 520.704 831.746 519.741 831.375 518.829C829.952 515.129 828.36 511.471 827.105 507.728C825.345 502.677 823.586 497.625 821.767 492.624L794.948 415.879C793.188 410.828 790.685 406.105 787.489 401.77L787.388 401.651C786.89 400.95 786.342 400.189 785.786 399.539L729.105 333.277C725.158 328.663 719.722 326.141 714.124 325.704C708.526 325.268 702.706 326.968 698.091 330.915C688.921 338.759 687.835 352.7 695.679 361.87L718.351 388.375C711.507 392.59 705.531 398.419 701.098 405.694C695.152 415.391 692.819 426.197 693.602 436.694C693.602 436.694 693.415 438.392 693.083 441.237C671.477 437.179 649.71 434.489 628.863 432.753C625.021 432.454 621.229 432.214 617.379 432.024L649.119 367.684C655.736 354.34 650.255 338.231 636.911 331.614L636.058 331.216C622.714 324.599 606.546 330.131 599.988 343.424L578.741 386.495L574.436 309.241C574.967 301.717 572.483 294.621 567.928 289.297C563.374 283.972 556.698 280.36 549.233 279.778C534.085 278.597 520.892 289.883 519.771 304.98L508.915 443.56C497.791 446.724 486.876 450.732 476.189 455.366C473.503 456.537 470.816 457.708 468.181 458.938C464.856 448.464 459.748 438.9 452.773 430.626C462.988 424.961 475.955 419.401 491.27 414.189C492.293 413.827 493.027 413.608 493.146 413.507C493.661 413.271 494.016 412.967 494.27 412.545C494.769 411.811 494.846 410.823 494.416 409.962C493.801 408.644 492.248 408.026 490.888 408.472C490.66 408.564 490.203 408.75 489.469 408.969C478.065 412.884 462.47 418.847 448.96 426.408C445.847 423.128 442.329 420.093 438.515 417.311C448.308 411.393 460.744 405.57 475.316 399.97C476.398 399.557 477.082 399.279 477.251 399.237C477.656 398.992 478.011 398.689 478.206 398.317C478.713 397.473 478.79 396.485 478.361 395.624C477.746 394.306 476.133 393.738 474.765 394.294C474.537 394.387 474.08 394.572 473.396 394.85C462.127 399.162 446.65 405.742 433.426 413.878C431.165 412.431 428.835 411.145 426.388 409.961C433.273 398.129 445.262 383.878 461.541 368.416C462.319 367.648 462.86 367.083 462.919 367.032C463.038 366.931 463.097 366.88 463.156 366.83C463.909 365.674 463.69 364.221 462.712 363.316C461.522 362.285 459.859 362.376 458.836 363.456C458.658 363.608 458.303 363.911 457.813 364.536C446.613 375.038 430.578 391.624 421.484 407.701C414.959 404.984 408.306 403.195 401.383 402.048C383.821 399.244 357.683 393.839 341.52 385.842C334.177 382.288 327.13 377.764 320.633 372.564C314.246 367.372 308.147 360.602 300.086 357.765C287.39 353.463 277 364.911 273.805 376.148C270.068 389.385 273.102 403.591 277.641 416.204C280.841 424.736 287.704 435.872 293.048 445.234C292.693 445.538 292.456 445.74 292.152 446.103C284.908 452.606 280.351 458.657 275.158 466.479C270.227 474.488 265.76 482.92 262.846 491.969C262.592 492.391 262.516 492.661 262.422 493.151C251.674 492.203 238.645 490.746 229.592 491.421C216.249 492.589 202.033 495.733 191.672 504.699C182.797 512.29 176.762 526.674 186.007 536.284C191.988 542.438 200.616 545.098 208.06 548.771C215.504 552.443 222.551 556.968 228.888 562.1C242.97 573.413 258.858 594.861 268.748 609.657C273.555 616.713 279.189 623.06 285.779 628.488C278.271 645.463 274.322 668.512 272.457 683.938C272.397 684.707 272.413 685.205 272.345 685.365C272.065 686.834 272.891 688.279 274.352 688.669C275.542 688.983 276.742 688.469 277.376 687.414C277.503 687.203 277.689 686.941 277.715 686.612C277.783 686.452 277.834 685.793 277.979 684.645C280.644 662.489 284.918 644.49 290.318 631.879C291.466 632.742 292.622 633.494 293.778 634.247C296.301 635.879 298.892 637.351 301.501 638.604C296.151 651.274 292.16 664.933 289.54 675.165C289.43 675.874 289.277 676.414 289.209 676.575C288.769 677.976 289.426 679.463 290.819 680.013C292.051 680.496 293.47 679.999 294.105 678.944C294.223 678.843 294.35 678.632 294.418 678.471C294.485 678.311 294.596 677.602 294.901 676.521C298.402 662.769 302.257 650.866 306.514 640.872C309.772 642.285 313.217 643.437 316.678 644.37C315.303 659.889 316.308 676.754 317.52 688.831C317.629 689.557 317.645 690.055 317.628 690.275C317.677 691.769 318.858 692.911 320.345 692.971C321.332 693.048 322.262 692.458 322.761 691.724C323.015 691.302 323.108 690.812 323.201 690.323C323.219 690.103 323.101 689.486 323.035 688.211C321.328 671.844 321.073 657.412 322.106 645.566C346.422 650.277 372.564 643.59 396.52 628.118C401.431 630.986 406.293 633.795 410.849 636.966C439.633 657.321 464.823 682.696 493.598 703.161C555.797 747.489 636.498 783.983 708.847 753.343C750.121 763.628 821.646 764.122 874.418 718.98C892.877 703.191 909.01 681.809 920.785 653.295C963.931 548.872 881.047 458.205 877.479 454.393L877.429 454.334Z" fill="#66666A"/>
</g>
<defs>
<clipPath id="clip0_4_2">
<rect width="1995" height="1060" fill="white"/>
</clipPath>
<clipPath id="clip1_4_2">
<rect width="286.667" height="350.557" fill="white" transform="matrix(-0.86621 0.49968 0.49968 0.86621 1441.43 644.918)"/>
</clipPath>
</defs>
</svg>
