<svg xmlns="http://www.w3.org/2000/svg" version="1.1" viewBox="-5.0 -10.0 110.0 135.0">
 <path d="m65.238 22.25c-0.99609-0.56641-2.2617-0.22266-2.832 0.76953l-8.2383 14.25c-0.27734 0.48438-0.34766 1.0586-0.19922 1.5938 0.16016 0.55078 0.53516 1.0078 1.043 1.2734 3.2852 1.8125 5.332 5.2656 5.3438 9.0195-0.003907 1.1172 0.87891 2.0391 2 2.082l16.438 0.64453h0.082031v0.003907c0.55078 0 1.082-0.22266 1.4727-0.61328 0.39062-0.39063 0.60938-0.91797 0.60938-1.4727v-0.20703-0.46875c-0.015625-5.4688-1.4766-10.836-4.2383-15.555s-6.7227-8.625-11.48-11.32zm-0.89453 24.895c-0.53516-3.7734-2.5391-7.1875-5.5742-9.5l6.168-10.688c6.9414 4.6797 11.301 12.324 11.793 20.68zm-6.5195 11.918c-0.26172-0.49219-0.71094-0.86328-1.2461-1.0234-0.53125-0.16016-1.1094-0.097656-1.5977 0.16797-3.1094 1.6797-6.8516 1.6797-9.9609 0-0.48828-0.26562-1.0664-0.32812-1.5977-0.16797-0.53516 0.16016-0.98438 0.53125-1.2461 1.0234l-7.668 14.582h0.003907c-0.53906 1.0156-0.15625 2.2695 0.85156 2.8125 9.1445 4.8906 20.129 4.8906 29.273 0 1.0078-0.54297 1.3906-1.7969 0.85156-2.8125zm-18.625 14.582 5.75-10.926c3.2617 1.1992 6.8398 1.1992 10.102 0l5.75 10.926c-6.8867 2.9961-14.707 3.0039-21.602 0.023438zm0.48047-24.512-0.003907 0.003907c0.011719-3.7539 2.0586-7.2109 5.3438-9.0234 0.50781-0.26172 0.88281-0.72266 1.043-1.2695 0.13281-0.53516 0.050781-1.0977-0.23047-1.5742l-8.2383-14.25c-0.57031-0.99219-1.8359-1.3359-2.832-0.76953-4.7617 2.6992-8.7227 6.6133-11.48 11.344-2.7578 4.7266-4.2109 10.102-4.2188 15.574v0.46875 0.20703c0 0.55078 0.21875 1.082 0.60938 1.4727s0.92188 0.60938 1.4727 0.60938h0.082031l16.438-0.64453h0.003907c1.1367-0.039062 2.0312-0.98438 2.0078-2.125zm-16.41-1.4961c0.49219-8.3555 4.8516-16 11.793-20.68l6.168 10.688c-3.0352 2.3125-5.0391 5.7266-5.5742 9.5zm26.73-40.262c-11.305 0-22.148 4.4922-30.141 12.484s-12.484 18.836-12.484 30.141 4.4922 22.148 12.484 30.141 18.836 12.484 30.141 12.484 22.148-4.4922 30.141-12.484 12.484-18.836 12.484-30.141c-0.023438-11.297-4.5195-22.129-12.508-30.117-7.9883-7.9883-18.82-12.484-30.117-12.508zm0 81.082c-10.199 0-19.98-4.0508-27.195-11.262-7.2109-7.2148-11.262-16.996-11.262-27.195s4.0508-19.98 11.262-27.195c7.2148-7.2109 16.996-11.262 27.195-11.262s19.98 4.0508 27.195 11.262c7.2109 7.2148 11.262 16.996 11.262 27.195-0.019531 10.191-4.0781 19.961-11.289 27.168-7.207 7.2109-16.977 11.27-27.168 11.289zm6.043-39.5c0 2.4453-1.4727 4.6484-3.7305 5.582-2.2578 0.9375-4.8555 0.41797-6.5859-1.3086-1.7266-1.7266-2.2422-4.3281-1.3086-6.5859 0.93359-2.2578 3.1367-3.7266 5.582-3.7266 3.3359 0 6.043 2.7031 6.043 6.0391z"/>
<text x="0.0" y="117.5" font-size="5.0" font-weight="bold" font-family="Arbeit Regular, Helvetica, Arial-Unicode, Arial, Sans-serif" fill="#000000">Created by Udin Opus</text><text x="0.0" y="122.5" font-size="5.0" font-weight="bold" font-family="Arbeit Regular, Helvetica, Arial-Unicode, Arial, Sans-serif" fill="#000000">from Noun Project</text></svg>