<svg xmlns="http://www.w3.org/2000/svg" viewBox="0 0 24 30" x="0px" y="0px"><path d="M12,1.004C5.937,1.004,1.004,5.937,1.004,12c0,3.429,1.579,6.495,4.047,8.513,.018,.017,.038,.03,.058,.044,1.887,1.522,4.282,2.439,6.89,2.439s5.004-.917,6.891-2.44c.02-.014,.039-.026,.057-.042,2.468-2.018,4.048-5.084,4.048-8.513,0-6.063-4.933-10.996-10.996-10.996Zm6.129,18.875c-1.695,1.321-3.818,2.116-6.129,2.116s-4.434-.795-6.129-2.116c-.016-.161-.032-.322-.032-.489,0-2.595,1.619-4.885,4.039-5.768,.64,.329,1.354,.533,2.121,.533s1.482-.204,2.121-.533c2.42,.883,4.039,3.174,4.039,5.768,0,.167-.016,.328-.032,.489ZM8.328,9.482c0-2.025,1.647-3.672,3.672-3.672s3.672,1.647,3.672,3.672-1.647,3.672-3.672,3.672-3.672-1.647-3.672-3.672Zm10.801,9.512c-.145-2.62-1.693-4.922-4.031-6.041,.958-.856,1.575-2.088,1.575-3.471,0-2.576-2.096-4.672-4.672-4.672s-4.672,2.096-4.672,4.672c0,1.383,.616,2.615,1.575,3.471-2.338,1.119-3.886,3.421-4.031,6.041-1.771-1.804-2.867-4.272-2.867-6.994C2.004,6.488,6.488,2.004,12,2.004s9.996,4.484,9.996,9.996c0,2.722-1.096,5.19-2.867,6.994Z"/><text x="0" y="39" fill="#000000" font-size="5px" font-weight="bold" font-family="'Helvetica Neue', Helvetica, Arial-Unicode, Arial, Sans-serif">Created by Rini Bahtiar</text><text x="0" y="44" fill="#000000" font-size="5px" font-weight="bold" font-family="'Helvetica Neue', Helvetica, Arial-Unicode, Arial, Sans-serif">from the Noun Project</text></svg>